<?xml version="1.0" encoding="UTF-8"?>
<!DOCTYPE svg PUBLIC "-//W3C//DTD SVG 1.1//EN" "http://www.w3.org/Graphics/SVG/1.1/DTD/svg11.dtd">
<svg xmlns="http://www.w3.org/2000/svg" version="1.1" width="782px" height="782px" style="shape-rendering:geometricPrecision; text-rendering:geometricPrecision; image-rendering:optimizeQuality; fill-rule:evenodd; clip-rule:evenodd" xmlns:xlink="http://www.w3.org/1999/xlink">
<g><path style="opacity:0.996" fill="#eef4f6" d="M 682.5,-0.5 C 683.833,-0.5 685.167,-0.5 686.5,-0.5C 713.849,102.229 741.516,204.895 769.5,307.5C 754.221,334.558 738.554,361.391 722.5,388C 738.554,414.609 754.221,441.442 769.5,468.5C 741.516,571.105 713.849,673.771 686.5,776.5C 582.062,749.474 477.729,721.974 373.5,694C 358.04,667.582 342.707,641.082 327.5,614.5C 296.167,613.616 264.834,613.45 233.5,614C 156.823,539.322 80.8226,463.989 5.5,388C 80.8226,312.011 156.823,236.678 233.5,162C 264.838,162.295 296.171,162.128 327.5,161.5C 342.707,134.918 358.04,108.418 373.5,82C 476.66,54.6286 579.66,27.1286 682.5,-0.5 Z M 568.5,116.5 C 571.998,116.565 572.498,117.899 570,120.5C 525.301,196.37 480.801,272.37 436.5,348.5C 345.835,349.667 255.169,349.833 164.5,349C 221.167,291.667 277.833,234.333 334.5,177C 412.605,156.808 490.605,136.641 568.5,116.5 Z M 639.5,155.5 C 661.898,232.874 684.231,310.374 706.5,388C 684.137,465.425 661.97,542.925 640,620.5C 594.448,543.23 549.281,465.73 504.5,388C 549.379,310.407 594.379,232.907 639.5,155.5 Z M 164.5,427.5 C 254.999,426.334 345.666,426.168 436.5,427C 481.626,504.085 526.626,581.251 571.5,658.5C 492.531,639.508 413.531,619.674 334.5,599C 277.966,541.633 221.299,484.466 164.5,427.5 Z"/></g>
</svg>
